<svg width="92" height="40" viewBox="0 0 92 40" fill="none" xmlns="http://www.w3.org/2000/svg">
<path d="M31.2876 23.3551L31.7679 23.2161L31.6634 22.8551H31.2876V23.3551ZM33.9475 32.5421L33.4672 32.6811L33.5717 33.0421H33.9475V32.5421ZM34.0525 32.5421V33.0421H34.4276L34.5325 32.682L34.0525 32.5421ZM36.7298 23.3551V22.8551H36.3547L36.2498 23.2152L36.7298 23.3551ZM40.7196 23.3551L41.1944 23.5119L41.4112 22.8551H40.7196V23.3551ZM36.4148 36.3918V36.8918H36.7763L36.8896 36.5486L36.4148 36.3918ZM31.5851 36.3918L31.1103 36.5486L31.2237 36.8918H31.5851V36.3918ZM27.2804 23.3551V22.8551H26.5887L26.8056 23.5119L27.2804 23.3551ZM30.8074 23.4942L33.4672 32.6811L34.4278 32.403L31.7679 23.2161L30.8074 23.4942ZM33.9475 33.0421H34.0525V32.0421H33.9475V33.0421ZM34.5325 32.682L37.2098 23.495L36.2498 23.2152L33.5724 32.4022L34.5325 32.682ZM36.7298 23.8551H40.7196V22.8551H36.7298V23.8551ZM40.2448 23.1984L35.94 36.2351L36.8896 36.5486L41.1944 23.5119L40.2448 23.1984ZM36.4148 35.8918H31.5851V36.8918H36.4148V35.8918ZM32.0599 36.2351L27.7552 23.1984L26.8056 23.5119L31.1103 36.5486L32.0599 36.2351ZM27.2804 23.8551H31.2876V22.8551H27.2804V23.8551ZM45.7936 23.3551H46.2936V22.8551H45.7936V23.3551ZM45.7936 36.3918V36.8918H46.2936V36.3918H45.7936ZM42.2588 36.3918H41.7588V36.8918H42.2588V36.3918ZM42.2588 23.3551V22.8551H41.7588V23.3551H42.2588ZM45.2936 23.3551V36.3918H46.2936V23.3551H45.2936ZM45.7936 35.8918H42.2588V36.8918H45.7936V35.8918ZM42.7588 36.3918V23.3551H41.7588V36.3918H42.7588ZM42.2588 23.8551H45.7936V22.8551H42.2588V23.8551ZM50.1064 36.0506L49.9195 36.5144L49.9234 36.516L50.1064 36.0506ZM47.4378 31.8071V31.3071H46.9351L46.9378 31.8098L47.4378 31.8071ZM50.7976 31.8071L51.2967 31.7778L51.269 31.3071H50.7976V31.8071ZM51.095 32.8133L50.6735 33.0824L50.6777 33.0886L51.095 32.8133ZM51.8475 33.4345L51.6475 33.8928L51.6505 33.8941L51.8475 33.4345ZM54.5511 33.1195L54.1593 32.8088L54.1579 32.8106L54.5511 33.1195ZM54.5598 32.0259L54.1709 32.34L54.1775 32.3482L54.1845 32.3562L54.5598 32.0259ZM52.7924 31.2822L52.6881 31.7712L52.6921 31.772L52.7924 31.2822ZM51.48 31.0022L51.5843 30.5132L51.5843 30.5132L51.48 31.0022ZM48.7589 29.751L48.4239 30.1222L48.4274 30.1252L48.7589 29.751ZM48.444 25.1575L48.8485 25.4514L48.8498 25.4496L48.444 25.1575ZM50.2988 23.7051L50.4991 24.1633L50.5007 24.1626L50.2988 23.7051ZM55.7673 23.7139L55.5562 24.1671L55.5604 24.169L55.7673 23.7139ZM57.5434 25.2013L57.1233 25.4724L57.1262 25.4769L57.5434 25.2013ZM58.1821 27.4324V27.9324H58.6855L58.6821 27.429L58.1821 27.4324ZM54.7873 27.4324L54.2885 27.4666L54.3204 27.9324H54.7873V27.4324ZM54.3148 26.4437L53.99 26.824L53.9987 26.831L54.3148 26.4437ZM52.145 26.2162L52.3102 26.6883L52.3205 26.6844L52.145 26.2162ZM51.6375 27.6249L51.2357 27.9225L51.242 27.9309L51.2485 27.939L51.6375 27.6249ZM52.2062 28.0274L51.9992 28.4827L52.0117 28.488L52.2062 28.0274ZM53.2124 28.3248L53.1076 28.8137L53.1082 28.8139L53.2124 28.3248ZM54.2798 28.5523L54.1756 29.0413L54.1764 29.0415L54.2798 28.5523ZM56.126 29.156L55.9065 29.6053L55.9085 29.6062L56.126 29.156ZM57.3947 30.0397L57.0349 30.3871L57.0411 30.3933L57.3947 30.0397ZM58.1209 31.1684L57.6506 31.3382L57.6527 31.344L58.1209 31.1684ZM57.7184 34.7294L57.3105 34.4403L57.3099 34.4411L57.7184 34.7294ZM53.0724 36.0493C51.9886 36.0493 51.0644 35.89 50.2893 35.5853L49.9234 36.516C50.8398 36.8762 51.893 37.0493 53.0724 37.0493V36.0493ZM50.2932 35.5868C49.5391 35.2831 48.9689 34.8255 48.5625 34.2159L47.7304 34.7706C48.2573 35.5608 48.9937 36.1415 49.9195 36.5144L50.2932 35.5868ZM48.5625 34.2159C48.1641 33.6182 47.9432 32.8261 47.9378 31.8044L46.9378 31.8098C46.944 32.9697 47.1956 33.9683 47.7304 34.7706L48.5625 34.2159ZM47.4378 32.3071H50.7976V31.3071H47.4378V32.3071ZM50.2984 31.8365C50.3257 32.2996 50.4435 32.7219 50.6736 33.0823L51.5165 32.5443C51.3966 32.3564 51.3161 32.1079 51.2967 31.7778L50.2984 31.8365ZM50.6777 33.0886C50.9153 33.4489 51.2442 33.7168 51.6475 33.8928L52.0475 32.9763C51.8092 32.8723 51.6364 32.726 51.5124 32.538L50.6777 33.0886ZM51.6505 33.8941C52.0542 34.0671 52.5155 34.1445 53.0199 34.1445V33.1445C52.6144 33.1445 52.2941 33.0819 52.0445 32.975L51.6505 33.8941ZM53.0199 34.1445C53.4364 34.1445 53.8163 34.0937 54.1445 33.9744L53.8027 33.0346C53.6176 33.1019 53.3618 33.1445 53.0199 33.1445V34.1445ZM54.1445 33.9744C54.4618 33.859 54.7428 33.6848 54.9442 33.4285L54.1579 32.8106C54.1027 32.8809 53.9987 32.9634 53.8027 33.0346L54.1445 33.9744ZM54.9428 33.4302C55.1471 33.1727 55.2523 32.8708 55.2523 32.5421H54.2523C54.2523 32.645 54.2234 32.728 54.1593 32.8088L54.9428 33.4302ZM55.2523 32.5421C55.2523 32.225 55.1457 31.9347 54.9352 31.6955L54.1845 32.3562C54.2306 32.4086 54.2523 32.4626 54.2523 32.5421H55.2523ZM54.9488 31.7117C54.7534 31.4698 54.4651 31.2925 54.1443 31.1551L53.7504 32.0742C54.0013 32.1817 54.1213 32.2786 54.1709 32.34L54.9488 31.7117ZM54.1443 31.1551C53.8148 31.0138 53.3931 30.8948 52.8928 30.7923L52.6921 31.772C53.16 31.8678 53.5083 31.9705 53.7504 32.0742L54.1443 31.1551ZM52.8968 30.7932L51.5843 30.5132L51.3757 31.4912L52.6881 31.7712L52.8968 30.7932ZM51.5843 30.5132C50.4932 30.2806 49.6733 29.8931 49.0905 29.3767L48.4274 30.1252C49.1745 30.7872 50.1686 31.2338 51.3758 31.4912L51.5843 30.5132ZM49.094 29.3798C48.556 28.8943 48.2702 28.23 48.2702 27.3274H47.2702C47.2702 28.4663 47.6436 29.4178 48.4239 30.1222L49.094 29.3798ZM48.2702 27.3274C48.2702 26.5953 48.4667 25.977 48.8485 25.4514L48.0394 24.8637C47.523 25.5746 47.2702 26.4029 47.2702 27.3274H48.2702ZM48.8498 25.4496C49.2406 24.9066 49.7839 24.4758 50.4991 24.1633L50.0986 23.247C49.2389 23.6227 48.5456 24.1602 48.0381 24.8655L48.8498 25.4496ZM50.5007 24.1626C51.2194 23.8455 52.0614 23.6801 53.0374 23.6801V22.6801C51.9485 22.6801 50.9648 22.8648 50.097 23.2477L50.5007 24.1626ZM53.0374 23.6801C54.0382 23.6801 54.8727 23.8489 55.5562 24.1671L55.9783 23.2606C55.1336 22.8672 54.1482 22.6801 53.0374 22.6801V23.6801ZM55.5604 24.169C56.2528 24.4838 56.7666 24.9198 57.1233 25.4724L57.9635 24.9301C57.4919 24.1995 56.8216 23.6439 55.9742 23.2587L55.5604 24.169ZM57.1262 25.4769C57.4867 26.0226 57.6769 26.6692 57.6821 27.4358L58.6821 27.429C58.6757 26.4923 58.4401 25.6516 57.9606 24.9257L57.1262 25.4769ZM58.1821 26.9324H54.7873V27.9324H58.1821V26.9324ZM55.2861 27.3982C55.2492 26.8582 55.041 26.391 54.631 26.0564L53.9987 26.831C54.1603 26.963 54.2671 27.155 54.2885 27.4666L55.2861 27.3982ZM54.6396 26.0635C54.2307 25.7143 53.6654 25.585 53.0374 25.585V26.585C53.5527 26.585 53.839 26.6948 53.9901 26.8239L54.6396 26.0635ZM53.0374 25.585C52.6405 25.585 52.2781 25.6323 51.9694 25.748L52.3205 26.6844C52.4785 26.6251 52.711 26.585 53.0374 26.585V25.585ZM51.9798 25.7443C51.6807 25.849 51.4119 26.0155 51.2251 26.2712L52.0325 26.8612C52.0673 26.8136 52.1426 26.7468 52.3102 26.6881L51.9798 25.7443ZM51.2251 26.2712C51.05 26.5107 50.9625 26.7867 50.9625 27.0824H51.9625C51.9625 26.9932 51.9858 26.925 52.0325 26.8612L51.2251 26.2712ZM50.9625 27.0824C50.9625 27.389 51.0525 27.6751 51.2357 27.9225L52.0393 27.3273C51.9892 27.2596 51.9625 27.1842 51.9625 27.0824H50.9625ZM51.2485 27.939C51.4368 28.1721 51.7012 28.347 51.9993 28.4825L52.4131 27.5722C52.198 27.4744 52.0832 27.3809 52.0265 27.3107L51.2485 27.939ZM52.0117 28.488C52.3131 28.6152 52.6814 28.7224 53.1076 28.8137L53.3172 27.8359C52.9268 27.7523 52.6243 27.6611 52.4007 27.5667L52.0117 28.488ZM53.1082 28.8139L54.1756 29.0413L54.3841 28.0633L53.3166 27.8358L53.1082 28.8139ZM54.1764 29.0415C54.8644 29.1869 55.4388 29.3767 55.9065 29.6053L56.3455 28.7068C55.7866 28.4337 55.1302 28.221 54.3833 28.0631L54.1764 29.0415ZM55.9085 29.6062C56.3861 29.837 56.7573 30.0995 57.035 30.387L57.7544 29.6924C57.3787 29.3033 56.9041 28.9767 56.3435 28.7058L55.9085 29.6062ZM57.0411 30.3933C57.3245 30.6767 57.5252 30.991 57.6506 31.3382L58.5911 30.9986C58.4132 30.5059 58.1298 30.0678 57.7482 29.6862L57.0411 30.3933ZM57.6527 31.344C57.787 31.7022 57.8571 32.0999 57.8571 32.5421H58.8571C58.8571 31.9926 58.7697 31.4746 58.589 30.9928L57.6527 31.344ZM57.8571 32.5421C57.8571 33.3135 57.667 33.9373 57.3105 34.4403L58.1263 35.0186C58.6214 34.32 58.8571 33.4855 58.8571 32.5421H57.8571ZM57.3099 34.4411C56.9549 34.944 56.4361 35.3408 55.7245 35.6202L56.09 36.551C56.9533 36.2121 57.6419 35.7048 58.1269 35.0178L57.3099 34.4411ZM55.7245 35.6202C55.01 35.9007 54.1303 36.0493 53.0724 36.0493V37.0493C54.2194 37.0493 55.2296 36.8888 56.09 36.551L55.7245 35.6202ZM63.5361 23.3551H64.0361V22.8551H63.5361V23.3551ZM63.5361 36.3918V36.8918H64.0361V36.3918H63.5361ZM60.0013 36.3918H59.5013V36.8918H60.0013V36.3918ZM60.0013 23.3551V22.8551H59.5013V23.3551H60.0013ZM63.0361 23.3551V36.3918H64.0361V23.3551H63.0361ZM63.5361 35.8918H60.0013V36.8918H63.5361V35.8918ZM60.5013 36.3918V23.3551H59.5013V36.3918H60.5013ZM60.0013 23.8551H63.5361V22.8551H60.0013V23.8551ZM68.5751 35.7969L68.3387 36.2375L68.3398 36.2381L68.5751 35.7969ZM66.3002 33.5395L65.8642 33.7843L65.8648 33.7854L66.3002 33.5395ZM68.5751 23.9501L68.8094 24.3918L68.8104 24.3913L68.5751 23.9501ZM75.0059 23.9501L74.7695 24.3907L74.7716 24.3918L75.0059 23.9501ZM77.2808 26.2075L76.8448 26.4522L76.8459 26.4542L77.2808 26.2075ZM77.2808 33.5483L76.8459 33.3016L76.8454 33.3024L77.2808 33.5483ZM75.0059 35.8056L75.2403 36.2473L75.2424 36.2462L75.0059 35.8056ZM73.2736 33.0758L73.5578 33.4871L73.5591 33.4862L73.2736 33.0758ZM74.1835 27.9049L73.7155 28.081L73.7162 28.0826L74.1835 27.9049ZM73.2736 26.6799L72.9852 27.0885L72.9921 27.0932L73.2736 26.6799ZM70.3162 26.6799L70.6005 27.0912L70.6018 27.0904L70.3162 26.6799ZM69.4063 27.9049L68.94 27.7244L68.939 27.7271L69.4063 27.9049ZM69.4063 31.8509L68.9389 32.0287L68.9407 32.0331L69.4063 31.8509ZM70.3162 33.0758L70.0278 33.4843L70.0347 33.489L70.3162 33.0758ZM71.7949 36.0668C70.6857 36.0668 69.6943 35.8271 68.8104 35.3557L68.3398 36.2381C69.3807 36.7932 70.5359 37.0668 71.7949 37.0668V36.0668ZM68.8115 35.3563C67.9425 34.89 67.2514 34.2071 66.7356 33.2937L65.8648 33.7854C66.469 34.8552 67.2945 35.6772 68.3387 36.2375L68.8115 35.3563ZM66.7362 33.2948C66.2278 32.3891 65.9603 31.2591 65.9603 29.8822H64.9603C64.9603 31.3868 65.2528 32.6951 65.8642 33.7843L66.7362 33.2948ZM65.9603 29.8822C65.9603 28.4929 66.2281 27.3574 66.7362 26.4522L65.8642 25.9627C65.2524 27.0524 64.9603 28.3668 64.9603 29.8822H65.9603ZM66.7362 26.4522C67.252 25.5335 67.9424 24.8517 68.8094 24.3918L68.3408 23.5084C67.2946 24.0634 66.4684 24.8866 65.8642 25.9627L66.7362 26.4522ZM68.8104 24.3913C69.6943 23.9198 70.6857 23.6801 71.7949 23.6801V22.6801C70.5359 22.6801 69.3807 22.9537 68.3398 23.5089L68.8104 24.3913ZM71.7949 23.6801C72.9041 23.6801 73.8921 23.9198 74.7695 24.3907L75.2424 23.5095C74.2066 22.9537 73.0538 22.6801 71.7949 22.6801V23.6801ZM74.7716 24.3918C75.6386 24.8517 76.329 25.5335 76.8448 26.4522L77.7168 25.9627C77.1127 24.8866 76.2865 24.0634 75.2403 23.5084L74.7716 24.3918ZM76.8459 26.4542C77.3591 27.3589 77.6295 28.4937 77.6295 29.8822H78.6295C78.6295 28.366 78.3341 27.0509 77.7157 25.9608L76.8459 26.4542ZM77.6295 29.8822C77.6295 31.2646 77.3593 32.3966 76.8459 33.3016L77.7157 33.795C78.334 32.7051 78.6295 31.3931 78.6295 29.8822H77.6295ZM76.8454 33.3024C76.3296 34.2158 75.6385 34.8988 74.7695 35.3651L75.2424 36.2462C76.2866 35.6859 77.1121 34.8639 77.7162 33.7941L76.8454 33.3024ZM74.7716 35.3639C73.8938 35.8296 72.9051 36.0668 71.7949 36.0668V37.0668C73.0529 37.0668 74.2049 36.7966 75.2403 36.2473L74.7716 35.3639ZM71.7949 33.987C72.4628 33.987 73.0607 33.8308 73.5578 33.4871L72.9893 32.6645C72.6932 32.8691 72.3053 32.987 71.7949 32.987V33.987ZM73.5591 33.4862C74.0576 33.1395 74.4172 32.6429 74.6508 32.0287L73.7162 31.6731C73.5415 32.1321 73.2945 32.4522 72.988 32.6653L73.5591 33.4862ZM74.6508 32.0287C74.8827 31.4192 74.9897 30.6988 74.9897 29.8822H73.9897C73.9897 30.6173 73.8926 31.2093 73.7162 31.6731L74.6508 32.0287ZM74.9897 29.8822C74.9897 29.0604 74.8828 28.3369 74.6508 27.7271L73.7162 28.0826C73.8925 28.546 73.9897 29.1409 73.9897 29.8822H74.9897ZM74.6515 27.7287C74.4181 27.1087 74.0578 26.6091 73.555 26.2667L72.9921 27.0932C73.2943 27.299 73.5406 27.6161 73.7155 28.081L74.6515 27.7287ZM73.5619 26.2714C73.0643 25.9202 72.4649 25.76 71.7949 25.76V26.76C72.3032 26.76 72.6896 26.8797 72.9852 27.0884L73.5619 26.2714ZM71.7949 25.76C71.1293 25.76 70.5319 25.9208 70.0307 26.2695L70.6018 27.0904C70.9055 26.8791 71.2939 26.76 71.7949 26.76V25.76ZM70.0319 26.2686C69.5371 26.6106 69.1786 27.108 68.94 27.7244L69.8726 28.0854C70.054 27.6167 70.302 27.2976 70.6005 27.0912L70.0319 26.2686ZM68.939 27.7271C68.7069 28.3369 68.6001 29.0604 68.6001 29.8822H69.6001C69.6001 29.1409 69.6973 28.546 69.8736 28.0826L68.939 27.7271ZM68.6001 29.8822C68.6001 30.6988 68.7071 31.4192 68.939 32.0287L69.8736 31.6731C69.6972 31.2093 69.6001 30.6173 69.6001 29.8822H68.6001ZM68.9407 32.0331C69.1795 32.6435 69.5373 33.138 70.0279 33.4843L70.6046 32.6673C70.3019 32.4536 70.053 32.1315 69.8719 31.6687L68.9407 32.0331ZM70.0347 33.489C70.5355 33.8301 71.1314 33.987 71.7949 33.987V32.987C71.2918 32.987 70.9019 32.8698 70.5977 32.6626L70.0347 33.489ZM91.323 23.3551H91.823V22.8551H91.323V23.3551ZM91.323 36.3918V36.8918H91.823V36.3918H91.323ZM88.3832 36.3918L87.9713 36.6752L88.1203 36.8918H88.3832V36.3918ZM83.676 29.5498L84.0879 29.2664L83.9389 29.0498H83.676V29.5498ZM83.5885 29.5498V29.0498H83.0885V29.5498H83.5885ZM83.5885 36.3918V36.8918H84.0885V36.3918H83.5885ZM80.0537 36.3918H79.5537V36.8918H80.0537V36.3918ZM80.0537 23.3551V22.8551H79.5537V23.3551H80.0537ZM83.0635 23.3551L83.4776 23.0748L83.3288 22.8551H83.0635V23.3551ZM87.6832 30.1797L87.2692 30.46L87.4179 30.6797H87.6832V30.1797ZM87.7882 30.1797V30.6797H88.2882V30.1797H87.7882ZM87.7882 23.3551V22.8551H87.2882V23.3551H87.7882ZM90.823 23.3551V36.3918H91.823V23.3551H90.823ZM91.323 35.8918H88.3832V36.8918H91.323V35.8918ZM88.7951 36.1084L84.0879 29.2664L83.264 29.8332L87.9713 36.6752L88.7951 36.1084ZM83.676 29.0498H83.5885V30.0498H83.676V29.0498ZM83.0885 29.5498V36.3918H84.0885V29.5498H83.0885ZM83.5885 35.8918H80.0537V36.8918H83.5885V35.8918ZM80.5537 36.3918V23.3551H79.5537V36.3918H80.5537ZM80.0537 23.8551H83.0635V22.8551H80.0537V23.8551ZM82.6495 23.6354L87.2692 30.46L88.0973 29.8994L83.4776 23.0748L82.6495 23.6354ZM87.6832 30.6797H87.7882V29.6797H87.6832V30.6797ZM88.2882 30.1797V23.3551H87.2882V30.1797H88.2882ZM87.7882 23.8551H91.323V22.8551H87.7882V23.8551Z" fill="#F1F2F8"/>
<mask id="mask0_23_4001" style="mask-type:alpha" maskUnits="userSpaceOnUse" x="0" y="0" width="34" height="40">
<path d="M6.71833 30.3521L18.6563 39.7711C18.9119 39.187 19.642 37.5368 20.5182 35.6092C21.6134 33.1997 23.2562 34.1854 25.9943 34.1854C28.7324 34.1854 29.6086 33.4188 29.8276 32.8711C30.0466 32.3235 29.6086 30.5712 29.6086 30.2426C29.6086 29.914 30.7038 28.8188 30.7038 28.5997C30.7038 28.4245 30.4117 27.9426 30.2657 27.7236L31.2514 26.9569C31.2149 26.3728 31.1857 25.0731 31.3609 24.5474C32.2371 24.5474 33.3323 23.9998 33.3323 23.3427C33.3323 22.6855 30.7038 18.4141 30.7038 17.5379C30.7038 16.837 31.5069 15.4935 31.9085 14.9094C32.2063 14.4347 32.2172 13.1562 31.9085 11.8428C31.5327 10.2435 27.6371 1 17.6706 1C7.70399 1 2.88504 7.46185 1.46124 11.5142C0.0374432 15.5665 2.11838 19.2903 4.85645 23.3427C7.0469 26.5845 7.0104 29.3664 6.71833 30.3521Z" fill="black" stroke="black" stroke-width="0.263514"/>
</mask>
<g mask="url(#mask0_23_4001)">
<path fill-rule="evenodd" clip-rule="evenodd" d="M-14.5156 21.4673C-16.4533 21.4306 -18.9679 21.0355 -22.2103 20.2073L-22.0865 19.7228C-18.8625 20.5463 -16.3896 20.9317 -14.5062 20.9674C-12.6203 21.0031 -11.3508 20.6877 -10.5099 20.1362C-9.67869 19.5911 -9.23509 18.7946 -9.04219 17.7905C-8.84756 16.7774 -8.91111 15.565 -9.09301 14.217C-9.21462 13.3159 -9.38652 12.3699 -9.56403 11.3931L-9.56406 11.3929C-9.65234 10.9071 -9.74201 10.4137 -9.82757 9.91427C-10.0838 8.41866 -10.3007 6.88228 -10.317 5.39471C-10.3498 2.41283 -9.57503 -0.407091 -6.6774 -2.32632C-3.82771 -4.2138 -1.3041 -4.61967 1.01923 -4.24743C3.32779 -3.87755 5.41875 -2.74149 7.40547 -1.59308C7.59153 -1.48554 7.77658 -1.37794 7.96078 -1.27085L7.96207 -1.27009L7.96448 -1.26869C9.76158 -0.223812 11.4771 0.773657 13.2459 1.22452C15.1733 1.71583 17.1622 1.55563 19.3707 0.036541C23.6976 -2.93969 24.5869 -8.31219 25.1083 -13.546C25.1601 -14.0669 25.2084 -14.5865 25.2563 -15.1018L25.2563 -15.1019C25.4471 -17.155 25.6315 -19.1397 26.0118 -20.8604C26.4874 -23.0127 27.282 -24.8192 28.8412 -25.8519L29.1173 -25.435C27.7238 -24.5121 26.9673 -22.8674 26.5 -20.7526C26.1272 -19.0655 25.9465 -17.1219 25.7559 -15.0723L25.7558 -15.0722C25.7076 -14.553 25.6586 -14.0269 25.6058 -13.4965C25.0872 -8.29018 24.1956 -2.67537 19.6541 0.448496C17.3197 2.05416 15.181 2.23379 13.1224 1.70902C11.2817 1.23983 9.50385 0.205492 7.72005 -0.832315L7.71907 -0.832882C7.53123 -0.942167 7.34331 -1.05149 7.15525 -1.1602C5.1651 -2.31059 3.14687 -3.40016 0.940132 -3.75372C-1.25184 -4.10492 -3.64965 -3.73201 -6.4013 -1.90947C-9.10501 -0.118679 -9.84881 2.50261 -9.81705 5.38921C-9.80114 6.83588 -9.58991 8.34056 -9.33475 9.82983C-9.25131 10.3168 -9.16288 10.8036 -9.07525 11.286L-9.07511 11.2867L-9.07498 11.2874L-9.07486 11.2881L-9.0748 11.2884L-9.0748 11.2884L-9.07479 11.2885L-9.07478 11.2885L-9.07478 11.2885L-9.07477 11.2886L-9.07477 11.2886L-9.07476 11.2887L-9.07476 11.2887L-9.07475 11.2887L-9.07474 11.2888L-9.07474 11.2888L-9.07473 11.2888C-8.89599 12.2726 -8.72058 13.2381 -8.5975 14.1502C-8.41377 15.5117 -8.34079 16.7897 -8.55118 17.8848C-8.7633 18.989 -9.26629 19.9185 -10.2357 20.5543C-11.1953 21.1837 -12.5804 21.504 -14.5156 21.4673ZM-5.38332 35.2554C-7.32092 35.2187 -9.83554 34.8236 -13.0779 33.9954L-12.9542 33.5109C-9.73019 34.3344 -7.25729 34.7198 -5.37384 34.7555C-3.48801 34.7912 -2.2185 34.4758 -1.37756 33.9243C-0.546366 33.3792 -0.102766 32.5826 0.0901318 31.5786C0.284769 30.5655 0.221218 29.3531 0.0393143 28.0051C-0.0588531 27.2777 -0.189789 26.521 -0.329994 25.7425C-0.33703 25.81 -0.344175 25.8772 -0.351442 25.9441C-0.305771 26.23 -0.263554 26.512 -0.226166 26.7891C-0.042429 28.1506 0.0305519 29.4287 -0.179836 30.5238C-0.391964 31.6279 -0.894949 32.5574 -1.86434 33.1932C-2.82399 33.8226 -4.20908 34.1429 -6.1443 34.1062C-8.08191 34.0695 -10.5965 33.6744 -13.8389 32.8462L-13.7152 32.3618C-10.4912 33.1852 -8.01828 33.5706 -6.13483 33.6063C-4.249 33.6421 -2.97949 33.3266 -2.13855 32.7751C-1.30735 32.23 -0.863756 31.4335 -0.670856 30.4294C-0.523746 29.6637 -0.52413 28.7841 -0.611629 27.8182C-0.688768 28.2466 -0.779009 28.6592 -0.8874 29.0508C-0.902643 29.1605 -0.920395 29.2685 -0.940823 29.3748C-1.15295 30.479 -1.65594 31.4085 -2.62533 32.0443C-3.58498 32.6737 -4.97007 32.994 -6.90529 32.9573C-8.8429 32.9206 -11.3575 32.5255 -14.5999 31.6973L-14.4762 31.2128C-11.6797 31.9271 -9.44843 32.3118 -7.6767 32.4245C-7.81338 32.3886 -7.95255 32.3497 -8.09427 32.3081C-8.69486 32.1315 -9.34365 31.9031 -10.0449 31.6188C-11.5513 31.4226 -13.3106 31.0721 -15.3609 30.5484L-15.2372 30.0639C-13.9945 30.3813 -12.8634 30.6336 -11.8347 30.8259C-12.3443 30.5828 -12.8773 30.315 -13.4349 30.0217C-14.2696 29.8507 -15.164 29.6439 -16.1219 29.3992L-15.9981 28.9147C-15.6632 29.0003 -15.3364 29.0811 -15.0175 29.1573L-15.184 29.0629L-14.9807 28.7054C-15.5851 28.5714 -16.2189 28.4199 -16.8831 28.2503L-16.7594 27.7658C-13.5354 28.5893 -11.0625 28.9747 -9.17902 29.0104C-7.29319 29.0461 -6.02368 28.7307 -5.18274 28.1792C-4.35154 27.634 -3.90795 26.8375 -3.71505 25.8335C-3.52041 24.8204 -3.58396 23.608 -3.76587 22.26C-3.88747 21.3588 -4.05937 20.4129 -4.23688 19.4361L-4.23691 19.4359L-4.23694 19.4357L-4.23697 19.4356C-4.32523 18.9499 -4.41488 18.4565 -4.50042 17.9572C-4.75667 16.4616 -4.97351 14.9253 -4.98988 13.4377C-5.02268 10.4558 -4.24788 7.63588 -1.35025 5.71665C1.49944 3.82916 4.02305 3.4233 6.34638 3.79554C8.65494 4.16542 10.7459 5.30148 12.7326 6.44989C12.9188 6.5575 13.104 6.66516 13.2883 6.77231L13.2916 6.77428C15.0887 7.81916 16.8043 8.81663 18.573 9.26749C20.5004 9.7588 22.4893 9.5986 24.6978 8.07951C29.0248 5.10328 29.914 -0.269224 30.4354 -5.50306C30.4873 -6.0239 30.5356 -6.54351 30.5835 -7.05882L30.5835 -7.05895C30.7743 -9.11206 30.9587 -11.0968 31.3389 -12.8175C31.8145 -14.9698 32.6092 -16.7762 34.1683 -17.8089L34.4444 -17.3921C33.051 -16.4691 32.2945 -14.8245 31.8271 -12.7096C31.4543 -11.0225 31.2736 -9.07892 31.083 -7.02938L31.083 -7.02928C31.0347 -6.51 30.9858 -5.98393 30.9329 -5.4535C30.4143 -0.24721 29.5228 5.3676 24.9812 8.49147C22.6468 10.0971 20.5082 10.2768 18.4495 9.75199C16.6089 9.2828 14.831 8.24846 13.0472 7.21066C12.859 7.10118 12.6708 6.99166 12.4824 6.88277C10.4922 5.73238 8.47402 4.64281 6.26728 4.28925C4.07531 3.93805 1.6775 4.31096 -1.07415 6.1335C-3.77786 7.92429 -4.52166 10.5456 -4.48991 13.4322C-4.47399 14.8789 -4.26276 16.3835 -4.0076 17.8728C-3.92409 18.3602 -3.83559 18.8474 -3.74788 19.3301L-3.74771 19.3311L-3.74765 19.3314C-3.56889 20.3153 -3.39345 21.2809 -3.27036 22.1931C-3.08662 23.5547 -3.01364 24.8327 -3.22403 25.9278C-3.43615 27.032 -3.93914 27.9615 -4.90853 28.5973C-5.86818 29.2266 -7.25327 29.547 -9.18849 29.5103C-10.6644 29.4823 -12.4751 29.2464 -14.6872 28.7695C-14.1954 29.0464 -13.7216 29.3051 -13.2649 29.5461C-11.327 29.94 -9.72943 30.1345 -8.41779 30.1593C-6.53196 30.195 -5.26245 29.8796 -4.42151 29.3281C-3.59031 28.783 -3.14672 27.9865 -2.95382 26.9824C-2.75918 25.9693 -2.82273 24.7569 -3.00463 23.4089C-3.12624 22.5078 -3.29814 21.5618 -3.47565 20.585L-3.47568 20.5848L-3.47571 20.5846L-3.47573 20.5845C-3.564 20.0988 -3.65365 19.6054 -3.73919 19.1062C-3.99544 17.6106 -4.21228 16.0742 -4.22865 14.5866C-4.26145 11.6047 -3.48665 8.7848 -0.589022 6.86557C2.26067 4.97809 4.78428 4.57223 7.10761 4.94447C9.41617 5.31434 11.5071 6.45041 13.4939 7.59881C13.68 7.70642 13.8652 7.81408 14.0495 7.92123L14.0529 7.9232C15.85 8.96808 17.5655 9.96555 19.3342 10.4164C21.2617 10.9077 23.2506 10.7475 25.4591 9.22844C29.786 6.25221 30.6753 0.879702 31.1966 -4.35414C31.2485 -4.87497 31.2968 -5.39459 31.3447 -5.90989L31.3447 -5.91002C31.5355 -7.96314 31.7199 -9.94783 32.1002 -11.6685C32.5758 -13.8208 33.3704 -15.6273 34.9296 -16.66L35.2057 -16.2431C33.8122 -15.3202 33.0557 -13.6755 32.5884 -11.5607C32.2156 -9.87359 32.0348 -7.93 31.8442 -5.88045L31.8442 -5.88035C31.7959 -5.36108 31.747 -4.835 31.6942 -4.30457C31.1756 0.901716 30.284 6.51653 25.7424 9.64039C23.4081 11.2461 21.2694 11.4257 19.2107 10.9009C17.3701 10.4317 15.5922 9.39739 13.8084 8.35958C13.6203 8.2501 13.432 8.14059 13.2436 8.0317C11.2535 6.88131 9.23525 5.79173 7.02851 5.43817C4.83654 5.08698 2.43873 5.45989 -0.312922 7.28242C-3.01663 9.07322 -3.76043 11.6945 -3.72868 14.5811C-3.71276 16.0278 -3.50153 17.5325 -3.24637 19.0217C-3.16286 19.5091 -3.07436 19.9963 -2.98664 20.4791L-2.98648 20.48L-2.98642 20.4803C-2.80766 21.4642 -2.63222 22.4299 -2.50912 23.3421C-2.32539 24.7036 -2.25241 25.9816 -2.4628 27.0767C-2.67492 28.1809 -3.17791 29.1104 -4.1473 29.7462C-5.10695 30.3756 -6.49204 30.6959 -8.42726 30.6592C-9.37152 30.6413 -10.4528 30.5383 -11.6886 30.3415C-11.0613 30.6423 -10.4714 30.9048 -9.91658 31.1313C-9.08264 31.238 -8.33186 31.2957 -7.65681 31.3085C-5.77098 31.3442 -4.50146 31.0288 -3.66052 30.4773C-2.82933 29.9321 -2.38573 29.1356 -2.19283 28.1316C-1.99819 27.1185 -2.06174 25.9061 -2.24365 24.5581C-2.36526 23.6569 -2.53715 22.711 -2.71466 21.7342L-2.71469 21.734L-2.71472 21.7338L-2.71475 21.7337C-2.80301 21.248 -2.89266 20.7546 -2.9782 20.2553C-3.23445 18.7597 -3.45129 17.2233 -3.46766 15.7358C-3.50046 12.7539 -2.72567 9.93397 0.171965 8.01474C3.02166 6.12726 5.54526 5.7214 7.8686 6.09364C10.1772 6.46351 12.2681 7.59958 14.2548 8.74798C14.4421 8.85625 14.6284 8.96457 14.8139 9.07237C16.6109 10.1173 18.3265 11.1147 20.0952 11.5656C22.0227 12.0569 24.0116 11.8967 26.2201 10.3776C30.547 7.40138 31.4363 2.02887 31.9576 -3.20497C32.0095 -3.7258 32.0578 -4.24542 32.1057 -4.76073L32.1057 -4.76085C32.2965 -6.81397 32.4809 -8.79866 32.8611 -10.5194C33.3368 -12.6717 34.1314 -14.4781 35.6906 -15.5108L35.9667 -15.094C34.5732 -14.171 33.8167 -12.5264 33.3494 -10.4115C32.9766 -8.72442 32.7958 -6.78083 32.6052 -4.73128L32.6052 -4.73118C32.5569 -4.21191 32.508 -3.68583 32.4552 -3.15541C31.9365 2.05089 31.045 7.6657 26.5034 10.7896C24.1691 12.3952 22.0304 12.5748 19.9717 12.0501C18.1311 11.5809 16.3532 10.5466 14.5694 9.50875C14.3812 9.39927 14.193 9.28976 14.0046 9.18087C12.0145 8.03048 9.99623 6.9409 7.7895 6.58734C5.59753 6.23615 3.19971 6.60905 0.448065 8.43159C-2.25565 10.2224 -2.99945 12.8437 -2.96769 15.7303C-2.95177 17.1769 -2.74055 18.6816 -2.48538 20.1709C-2.40187 20.6583 -2.31337 21.1455 -2.22566 21.6282L-2.22549 21.6292L-2.22544 21.6295C-2.04667 22.6134 -1.87124 23.579 -1.74814 24.4912C-1.5644 25.8528 -1.49142 27.1308 -1.70181 28.2259C-1.91394 29.33 -2.41692 30.2596 -3.38632 30.8954C-4.34597 31.5247 -5.73105 31.8451 -7.66628 31.8084C-7.79532 31.8059 -7.92693 31.8019 -8.06113 31.7963L-8.01532 31.81L-7.95326 31.8284C-6.14365 32.3603 -4.8359 32.3909 -3.87926 32.0808C-2.93371 31.7742 -2.29571 31.1229 -1.84479 30.2053C-1.65925 29.8278 -1.50639 29.4069 -1.37819 28.9495C-1.25211 28.0071 -1.32016 26.9112 -1.48266 25.707C-1.60427 24.8059 -1.77617 23.8599 -1.95368 22.8831L-1.9537 22.8829L-1.95373 22.8827C-2.042 22.397 -2.13166 21.9036 -2.21722 21.4043C-2.47346 19.9086 -2.69031 18.3723 -2.70667 16.8847C-2.73948 13.9028 -1.96468 11.0829 0.932951 9.16367C3.78265 7.27619 6.30625 6.87032 8.62958 7.24257C10.9381 7.61244 13.0291 8.7485 15.0158 9.89691C15.1989 10.0027 15.381 10.1086 15.5623 10.214L15.5715 10.2193L15.5748 10.2213C17.3719 11.2662 19.0875 12.2636 20.8562 12.7145C22.7836 13.2058 24.7725 13.0456 26.9811 11.5265C31.308 8.5503 32.1973 3.1778 32.7186 -2.05604C32.7705 -2.57688 32.8188 -3.09649 32.8667 -3.6118L32.8667 -3.61193C33.0575 -5.66504 33.2419 -7.64974 33.6221 -9.37045C34.0977 -11.5227 34.8924 -13.3292 36.4515 -14.3619L36.7276 -13.945C35.3342 -13.0221 34.5777 -11.3774 34.1104 -9.26257C33.7375 -7.57549 33.5568 -5.6319 33.3662 -3.58235L33.3662 -3.58226C33.3179 -3.06298 33.269 -2.53691 33.2161 -2.00648C32.6975 3.19981 31.806 8.81462 27.2644 11.9385C24.93 13.5442 22.7914 13.7238 20.7327 13.199C18.8921 12.7298 17.1142 11.6955 15.3304 10.6577C15.1422 10.5482 14.954 10.4387 14.7656 10.3298C12.7754 9.1794 10.7572 8.08983 8.55048 7.73627C6.35851 7.38507 3.9607 7.75798 1.20905 9.58052C-1.49466 11.3713 -2.23846 13.9926 -2.2067 16.8792C-2.19079 18.3259 -1.97956 19.8306 -1.7244 21.3198C-1.64089 21.8072 -1.55238 22.2944 -1.46467 22.7772L-1.46451 22.7781L-1.46445 22.7784C-1.28569 23.7623 -1.11025 24.728 -0.987152 25.6402C-0.954765 25.8802 -0.925821 26.1176 -0.901262 26.3518C-0.8855 26.2212 -0.870365 26.0895 -0.855747 25.9568C-0.956461 25.332 -1.07331 24.689 -1.19269 24.032L-1.19272 24.0318C-1.281 23.546 -1.37067 23.0526 -1.45623 22.5532C-1.71248 21.0576 -1.92932 19.5212 -1.94569 18.0336C-1.97849 15.0518 -1.2037 12.2318 1.69394 10.3126C4.54363 8.42511 7.06724 8.01925 9.39057 8.39149C11.6991 8.76136 13.7901 9.89743 15.7768 11.0458C15.963 11.1534 16.1481 11.2611 16.3324 11.3683L16.3358 11.3702C18.1329 12.4151 19.8485 13.4126 21.6172 13.8634C23.5446 14.3547 25.5335 14.1945 27.742 12.6755C32.069 9.69923 32.9582 4.32672 33.4796 -0.907116C33.5315 -1.42795 33.5798 -1.94757 33.6276 -2.46287L33.6277 -2.463C33.8184 -4.51612 34.0029 -6.50081 34.3831 -8.22153C34.8587 -10.3738 35.6533 -12.1802 37.2125 -13.213L37.4886 -12.7961C36.0952 -11.8732 35.3387 -10.2285 34.8713 -8.11364C34.4985 -6.42657 34.3178 -4.48298 34.1272 -2.43343L34.1272 -2.43333C34.0789 -1.91406 34.03 -1.38798 33.9771 -0.857553C33.4585 4.34874 32.567 9.96355 28.0254 13.0874C25.691 14.6931 23.5524 14.8727 21.4937 14.3479C19.653 13.8787 17.8752 12.8444 16.0914 11.8066C15.9032 11.6971 15.715 11.5876 15.5266 11.4787C13.5364 10.3283 11.5182 9.23875 9.31147 8.88519C7.1195 8.534 4.72169 8.90691 1.97004 10.7294C-0.733673 12.5202 -1.47747 15.1415 -1.44572 18.0281C-1.4298 19.4748 -1.21857 20.9795 -0.963411 22.4688C-0.879848 22.9565 -0.791283 23.4439 -0.70352 23.927L-0.703463 23.9273C-0.694403 23.9772 -0.685349 24.027 -0.676311 24.0768C-0.671192 24.0183 -0.666071 23.9597 -0.66094 23.901L-0.695242 23.7024C-0.95149 22.2067 -1.16833 20.6704 -1.1847 19.1828C-1.2175 16.2009 -0.442707 13.381 2.45493 11.4618C5.30462 9.57429 7.82823 9.16842 10.1516 9.54066C12.4601 9.91054 14.5511 11.0466 16.5378 12.195C16.7222 12.3016 16.9056 12.4082 17.0882 12.5144L17.0954 12.5186L17.0968 12.5194C18.8939 13.5643 20.6095 14.5617 22.3782 15.0126C24.3056 15.5039 26.2945 15.3437 28.503 13.8246C32.83 10.8484 33.7192 5.4759 34.2406 0.242058C34.2925 -0.278776 34.3408 -0.798393 34.3886 -1.3137C34.5794 -3.36686 34.7639 -5.3516 35.1441 -7.07235C35.6197 -9.22464 36.4143 -11.0311 37.9735 -12.0638L38.2496 -11.6469C36.8562 -10.724 36.0997 -9.07935 35.6323 -6.96447C35.2595 -5.27739 35.0788 -3.3338 34.8882 -1.28425L34.8882 -1.28416C34.8399 -0.764883 34.791 -0.238808 34.7381 0.29162C34.2195 5.49791 33.328 11.1127 28.7864 14.2366C26.452 15.8422 24.3133 16.0219 22.2547 15.4971C20.414 15.0279 18.6362 13.9936 16.8524 12.9558L16.852 12.9556C16.664 12.8462 16.4758 12.7367 16.2876 12.6279C14.2974 11.4775 12.2792 10.3879 10.0725 10.0344C7.88049 9.68317 5.48268 10.0561 2.73103 11.8786C0.0273151 13.6694 -0.716484 16.2907 -0.684727 19.1773C-0.675005 20.061 -0.592415 20.9662 -0.471451 21.8765C-0.408585 21.2825 -0.335888 20.6865 -0.245426 20.096C-0.25462 17.21 0.522638 14.5406 3.28316 12.7122L3.34292 12.6728C3.95111 12.2054 4.65929 11.813 5.48586 11.5136C7.1696 10.7997 8.72887 10.6085 10.1997 10.7518C11.4775 10.817 12.6234 11.1257 13.6736 11.6021C14.0744 11.7838 14.4605 11.9898 14.8342 12.2152C15.7988 12.6943 16.7377 13.2404 17.6648 13.7796L17.665 13.7797C21.4324 15.9709 25.0067 18.0497 29.3349 15.0726C34.2157 11.7154 34.8029 5.39779 35.3286 -0.25692C35.7581 -4.87705 36.1464 -9.05463 38.8018 -10.8134L41.5459 3.44201C41.7453 3.00027 41.9503 2.57493 42.1633 2.17021C43.1898 0.219618 44.4328 -1.31322 46.2092 -1.89806L46.3655 -1.42314C44.7779 -0.900457 43.6144 0.486372 42.6057 2.40306C42.2933 2.99679 41.9986 3.63547 41.7125 4.30747L47.1752 32.6854L10.9868 55.6951L-12.3259 34.7951C2.77077 38.6512 1.74595 33.011 0.503098 26.1708C0.2994 25.0498 0.0898457 23.8965 -0.0555515 22.7475C-0.0910721 23.1257 -0.124247 23.504 -0.157108 23.8797C-0.0871639 24.2801 -0.0145493 24.6798 0.0575256 25.0765C0.236288 26.0604 0.411724 27.0261 0.534822 27.9383C0.718559 29.2998 0.79154 30.5778 0.581152 31.6729C0.369024 32.7771 -0.133961 33.7066 -1.10336 34.3424C-2.06301 34.9718 -3.44809 35.2921 -5.38332 35.2554ZM-21.4493 21.3565C-18.2069 22.1846 -15.6923 22.5798 -13.7547 22.6165C-11.8194 22.6532 -10.4343 22.3328 -9.47469 21.7035C-8.5053 21.0677 -8.00232 20.1382 -7.79019 19.034C-7.5798 17.9389 -7.65278 16.6609 -7.83652 15.2993C-7.95959 14.3873 -8.13501 13.4218 -8.31375 12.438L-8.31376 12.4379L-8.31376 12.4379L-8.31377 12.4379L-8.31378 12.4378L-8.31378 12.4378L-8.31379 12.4378L-8.31379 12.4377L-8.3138 12.4377L-8.3138 12.4376L-8.31381 12.4376L-8.31382 12.4376L-8.31388 12.4373L-8.314 12.4366L-8.31412 12.4359L-8.31426 12.4351C-8.4019 11.9528 -8.49032 11.466 -8.57376 10.979C-8.82893 9.48973 -9.04015 7.98505 -9.05607 6.53838C-9.08782 3.65178 -8.34403 1.03049 -5.64031 -0.760298C-2.88867 -2.58284 -0.490852 -2.95575 1.70112 -2.60455C3.90786 -2.25099 5.92608 -1.16142 7.91624 -0.0110283C8.1043 0.0976791 8.29221 0.207003 8.48006 0.316288L8.48103 0.316854C10.2648 1.35466 12.0427 2.389 13.8834 2.85819C15.942 3.38296 18.0807 3.20333 20.415 1.59767C24.9566 -1.5262 25.8482 -7.14101 26.3668 -12.3473C26.4196 -12.8777 26.4685 -13.4038 26.5168 -13.9231L26.5168 -13.9232C26.7074 -15.9727 26.8882 -17.9163 27.261 -19.6034C27.7283 -21.7183 28.4848 -23.3629 29.8783 -24.2859L29.6022 -24.7027C28.043 -23.67 27.2484 -21.8636 26.7728 -19.7113C26.3925 -17.9906 26.2081 -16.0059 26.0173 -13.9527L26.0173 -13.9526C25.9694 -13.4373 25.9211 -12.9177 25.8692 -12.3969C25.3479 -7.16302 24.4586 -1.79052 20.1317 1.18571C17.9232 2.7048 15.9343 2.865 14.0069 2.37369C12.2381 1.92283 10.5226 0.925358 8.72547 -0.119522L8.72306 -0.120924L8.72176 -0.121679C8.53757 -0.228775 8.35251 -0.336367 8.16646 -0.443913C6.17974 -1.59232 4.08878 -2.72838 1.78022 -3.09826C-0.543116 -3.4705 -3.06672 -3.06463 -5.91641 -1.17715C-8.81405 0.742079 -9.58884 3.562 -9.55604 6.54388C-9.53967 8.03145 -9.32283 9.56783 -9.06658 11.0634C-8.98102 11.5628 -8.89135 12.0563 -8.80307 12.5421L-8.80304 12.5423C-8.62553 13.5191 -8.45364 14.465 -8.33203 15.3662C-8.15012 16.7142 -8.08657 17.9266 -8.28121 18.9397C-8.47411 19.9437 -8.91771 20.7402 -9.7489 21.2854C-10.5898 21.8369 -11.8594 22.1523 -13.7452 22.1166C-15.6286 22.0809 -18.1015 21.6955 -21.3255 20.872L-21.4493 21.3565ZM-12.9937 23.7654C-14.9313 23.7287 -17.4459 23.3336 -20.6883 22.5054L-20.5646 22.0209C-17.3405 22.8444 -14.8676 23.2298 -12.9842 23.2655C-11.0984 23.3012 -9.82886 22.9858 -8.98792 22.4343C-8.15672 21.8892 -7.71312 21.0927 -7.52022 20.0886C-7.32559 19.0755 -7.38914 17.8631 -7.57104 16.5151C-7.69265 15.614 -7.86454 14.668 -8.04206 13.6912L-8.04209 13.691C-8.13037 13.2052 -8.22003 12.7118 -8.3056 12.2124C-8.56184 10.7168 -8.77869 9.18038 -8.79505 7.69281C-8.82786 4.71093 -8.05306 1.891 -5.15543 -0.0282269C-2.30573 -1.91571 0.217871 -2.32157 2.5412 -1.94933C4.84976 -1.57946 6.94072 -0.443392 8.92745 0.705013C9.1135 0.812559 9.29855 0.920151 9.48275 1.02725L9.48405 1.028L9.48646 1.0294C11.2836 2.07428 12.9991 3.07175 14.7678 3.52261C16.6953 4.01392 18.6842 3.85373 20.8927 2.33464C25.2196 -0.64159 26.1089 -6.0141 26.6302 -11.2479C26.6821 -11.7688 26.7304 -12.2884 26.7783 -12.8037L26.7783 -12.8038C26.9691 -14.8569 27.1535 -16.8416 27.5338 -18.5623C28.0094 -20.7146 28.804 -22.5211 30.3632 -23.5538L30.6393 -23.1369C29.2458 -22.214 28.4893 -20.5693 28.022 -18.4545C27.6492 -16.7674 27.4684 -14.8238 27.2778 -12.7742L27.2778 -12.7742C27.2295 -12.2549 27.1806 -11.7288 27.1278 -11.1984C26.6092 -5.99208 25.7176 -0.37727 21.176 2.74659C18.8417 4.35225 16.703 4.53188 14.6443 4.00712C12.8037 3.53793 11.0258 2.50359 9.24202 1.46578L9.24104 1.46521C9.0532 1.35593 8.86528 1.2466 8.67722 1.1379C6.68707 -0.0124931 4.66884 -1.10207 2.4621 -1.45563C0.270134 -1.80682 -2.12768 -1.43391 -4.87933 0.388628C-7.58304 2.17942 -8.32684 4.80071 -8.29508 7.68731C-8.27917 9.13398 -8.06794 10.6387 -7.81278 12.1279C-7.72934 12.6149 -7.64091 13.1017 -7.55328 13.5841L-7.55314 13.5848L-7.55301 13.5855L-7.55289 13.5862L-7.55283 13.5865L-7.55282 13.5865L-7.55282 13.5866L-7.55281 13.5866L-7.55281 13.5866L-7.5528 13.5867L-7.55279 13.5867L-7.55279 13.5867L-7.55278 13.5868L-7.55278 13.5868L-7.55277 13.5868C-7.37403 14.5707 -7.19861 15.5362 -7.07553 16.4483C-6.8918 17.8098 -6.81881 19.0878 -7.0292 20.1829C-7.24133 21.2871 -7.74432 22.2166 -8.71371 22.8524C-9.67336 23.4818 -11.0584 23.8021 -12.9937 23.7654ZM-19.9271 23.6543C-16.6847 24.4825 -14.17 24.8776 -12.2324 24.9143C-10.2972 24.951 -8.91213 24.6307 -7.95248 24.0013C-6.98308 23.3656 -6.4801 22.436 -6.26797 21.3319C-6.05758 20.2368 -6.13056 18.9588 -6.3143 17.5972C-6.43738 16.6851 -6.6128 15.7196 -6.79155 14.7357L-6.79155 14.7357L-6.79156 14.7357L-6.79156 14.7356L-6.79157 14.7356L-6.79158 14.7356L-6.79158 14.7355L-6.79159 14.7355L-6.79159 14.7355L-6.7916 14.7354L-6.79166 14.7351L-6.79178 14.7345L-6.79191 14.7337L-6.79204 14.733C-6.87968 14.2506 -6.96811 13.7639 -7.05155 13.2769C-7.30671 11.7876 -7.51794 10.2829 -7.53385 8.83624C-7.56561 5.94963 -6.82181 3.32834 -4.1181 1.53755C-1.36645 -0.284986 1.03136 -0.657894 3.22334 -0.306702C5.43007 0.0468597 7.4483 1.13643 9.43845 2.28682C9.62681 2.3957 9.81503 2.5052 10.0032 2.61465L10.0033 2.61471C11.7871 3.65251 13.5649 4.68685 15.4056 5.15605C17.4642 5.68081 19.6029 5.50118 21.9373 3.89552C26.4789 0.771656 27.3704 -4.84316 27.889 -10.0494C27.9418 -10.5799 27.9908 -11.106 28.039 -11.6252L28.0391 -11.6253C28.2297 -13.6749 28.4104 -15.6185 28.7832 -17.3055C29.2505 -19.4204 30.007 -21.0651 31.4005 -21.988L31.1244 -22.4049C29.5652 -21.3721 28.7706 -19.5657 28.295 -17.4134C27.9147 -15.6927 27.7303 -13.708 27.5395 -11.6549L27.5395 -11.6548C27.4916 -11.1395 27.4433 -10.6198 27.3915 -10.099C26.8701 -4.86517 25.9809 0.507336 21.6539 3.48356C19.4454 5.00265 17.4565 5.16285 15.5291 4.67154C13.7603 4.22068 12.0448 3.22321 10.2477 2.17833L10.2443 2.17637L10.244 2.17617L10.2378 2.1726C10.0557 2.06669 9.87266 1.96029 9.68868 1.85394C7.70195 0.705534 5.61099 -0.430531 3.30243 -0.800404C0.979101 -1.17264 -1.5445 -0.766783 -4.3942 1.1207C-7.29183 3.03993 -8.06663 5.85986 -8.03382 8.84174C-8.01746 10.3293 -7.80061 11.8657 -7.54436 13.3613C-7.4588 13.8607 -7.36913 14.3541 -7.28086 14.8399L-7.28082 14.8401C-7.10331 15.817 -6.93142 16.7629 -6.80981 17.6641C-6.6279 19.012 -6.56435 20.2244 -6.75899 21.2375C-6.95189 22.2416 -7.39549 23.0381 -8.22669 23.5832C-9.06763 24.1347 -10.3371 24.4502 -12.223 24.4144C-14.1064 24.3787 -16.5793 23.9934 -19.8033 23.1699L-19.9271 23.6543ZM-11.4715 26.0633C-13.4091 26.0266 -15.9237 25.6314 -19.1661 24.8032L-19.0423 24.3188C-15.8183 25.1423 -13.3454 25.5277 -11.462 25.5634C-9.57615 25.5991 -8.30664 25.2837 -7.4657 24.7321C-6.6345 24.187 -6.1909 23.3905 -5.998 22.3864C-5.80337 21.3733 -5.86692 20.161 -6.04882 18.813C-6.17043 17.9118 -6.34233 16.9659 -6.51984 15.989L-6.51987 15.9889C-6.60815 15.5031 -6.69782 15.0096 -6.78338 14.5102C-7.03963 13.0146 -7.25647 11.4782 -7.27283 9.99066C-7.30564 7.00878 -6.53084 4.18886 -3.63321 2.26962C-0.783516 0.382143 1.74009 -0.0237179 4.06342 0.348522C6.37198 0.718395 8.46294 1.85446 10.4497 3.00286C10.6358 3.11048 10.821 3.21813 11.0053 3.32529L11.0087 3.32726C12.8058 4.37214 14.5213 5.3696 16.2901 5.82047C18.2175 6.31178 20.2064 6.15158 22.4149 4.63249C26.7418 1.65626 27.6311 -3.71625 28.1525 -8.95008C28.2043 -9.47092 28.2526 -9.99054 28.3005 -10.5058L28.3005 -10.506C28.4913 -12.5591 28.6757 -14.5438 29.056 -16.2645C29.5316 -18.4168 30.3262 -20.2232 31.8854 -21.2559L32.1615 -20.8391C30.768 -19.9161 30.0115 -18.2715 29.5442 -16.1566C29.1714 -14.4695 28.9906 -12.5259 28.8 -10.4764L28.8 -10.4763C28.7517 -9.95703 28.7028 -9.43095 28.65 -8.90052C28.1314 -3.69423 27.2398 1.92058 22.6982 5.04444C20.3639 6.65011 18.2252 6.82973 16.1666 6.30497C14.3259 5.83578 12.548 4.80144 10.7642 3.76363L10.7642 3.76358L10.7641 3.76353L10.764 3.76348L10.7621 3.7624C10.5747 3.65333 10.3871 3.54423 10.1994 3.43575C8.20929 2.28536 6.19106 1.19579 3.98432 0.842224C1.79235 0.491032 -0.605463 0.863939 -3.35711 2.68648C-6.06082 4.47727 -6.80462 7.09856 -6.77287 9.98516C-6.75695 11.4318 -6.54572 12.9365 -6.29056 14.4258C-6.20698 14.9136 -6.1184 15.4012 -6.03062 15.8843L-6.03061 15.8844C-5.85185 16.8683 -5.67641 17.8339 -5.55331 18.7461C-5.36958 20.1077 -5.2966 21.3857 -5.50698 22.4808C-5.71911 23.5849 -6.2221 24.5145 -7.19149 25.1502C-8.15114 25.7796 -9.53623 26.0999 -11.4715 26.0633ZM-18.4051 25.9522C-15.1627 26.7803 -12.6481 27.1755 -10.7105 27.2122C-8.77524 27.2489 -7.39016 26.9285 -6.4305 26.2992C-5.46111 25.6634 -4.95813 24.7339 -4.746 23.6297C-4.53561 22.5346 -4.60859 21.2566 -4.79233 19.8951C-4.91543 18.9828 -5.09086 18.0172 -5.26962 17.0333L-5.26968 17.033L-5.26985 17.032C-5.35756 16.5493 -5.44606 16.0621 -5.52957 15.5747C-5.78474 14.0854 -5.99596 12.5808 -6.01188 11.1341C-6.04364 8.24749 -5.29984 5.62619 -2.59612 3.83541C0.155523 2.01287 2.55334 1.63996 4.74531 1.99115C6.95205 2.34471 8.97027 3.43428 10.9604 4.58467C11.1469 4.69248 11.3333 4.8009 11.5196 4.90928L11.525 4.9124L11.5251 4.91245L11.5251 4.91251L11.5252 4.91256C13.309 5.95037 15.0869 6.9847 16.9275 7.4539C18.9862 7.97866 21.1249 7.79903 23.4592 6.19337C28.0008 3.06951 28.8924 -2.54531 29.411 -7.7516C29.4638 -8.28202 29.5127 -8.8081 29.561 -9.32737L29.561 -9.32747C29.7516 -11.377 29.9324 -13.3206 30.3052 -15.0077C30.7725 -17.1226 31.529 -18.7672 32.9225 -19.6902L32.6464 -20.107C31.0872 -19.0743 30.2926 -17.2679 29.817 -15.1156C29.4367 -13.3949 29.2523 -11.4102 29.0615 -9.35704L29.0615 -9.35692C29.0136 -8.84161 28.9653 -8.32199 28.9134 -7.80116C28.3921 -2.56732 27.5028 2.80519 23.1759 5.78141C20.9674 7.30051 18.9785 7.4607 17.051 6.96939C15.2823 6.51853 13.5668 5.52106 11.7697 4.47618L11.7663 4.47422C11.582 4.36706 11.3968 4.2594 11.2107 4.15179C9.22393 3.00339 7.13297 1.86732 4.82441 1.49745C2.50107 1.12521 -0.0225296 1.53107 -2.87222 3.41855C-5.76986 5.33778 -6.54465 8.15771 -6.51185 11.1396C-6.49548 12.6272 -6.27864 14.1635 -6.02239 15.6591C-5.93685 16.1584 -5.8472 16.6518 -5.75894 17.1375L-5.75891 17.1376L-5.75888 17.1378L-5.75885 17.138C-5.58134 18.1148 -5.40945 19.0607 -5.28784 19.9619C-5.10593 21.3099 -5.04238 22.5223 -5.23702 23.5354C-5.42992 24.5394 -5.87352 25.3359 -6.70471 25.8811C-7.54565 26.4326 -8.81516 26.748 -10.701 26.7123C-12.5844 26.6766 -15.0573 26.2912 -18.2814 25.4677L-18.4051 25.9522ZM-9.94948 28.3614C-11.8871 28.3247 -14.4017 27.9295 -17.6441 27.1013L-17.5204 26.6169C-14.2964 27.4404 -11.8235 27.8258 -9.94001 27.8615C-8.05418 27.8972 -6.78467 27.5818 -5.94373 27.0302C-5.11253 26.4851 -4.66893 25.6886 -4.47603 24.6845C-4.28139 23.6714 -4.34495 22.4591 -4.52685 21.1111C-4.64846 20.2099 -4.82035 19.264 -4.99787 18.2871L-4.99789 18.287L-4.99792 18.2868L-4.99795 18.2866C-5.08621 17.8009 -5.17586 17.3076 -5.26141 16.8083C-5.51765 15.3127 -5.7345 13.7763 -5.75086 12.2888C-5.78367 9.30688 -5.00887 6.48695 -2.11124 4.56772C0.738457 2.68024 3.26206 2.27438 5.58539 2.64662C7.89395 3.01649 9.98491 4.15256 11.9716 5.30096C12.1578 5.40857 12.343 5.51623 12.5273 5.62339L12.5306 5.62535C14.3277 6.67023 16.0433 7.6677 17.812 8.11856C19.7395 8.60987 21.7284 8.44968 23.9369 6.93058C28.2638 3.95436 29.1531 -1.41815 29.6744 -6.65199C29.7263 -7.17282 29.7746 -7.69244 29.8225 -8.20775L29.8225 -8.20787C30.0133 -10.261 30.1977 -12.2457 30.5779 -13.9664C31.0535 -16.1187 31.8482 -17.9251 33.4074 -18.9578L33.6835 -18.541C32.29 -17.618 31.5335 -15.9734 31.0662 -13.8585C30.6934 -12.1714 30.5126 -10.2278 30.322 -8.1783L30.322 -8.1782C30.2737 -7.65893 30.2248 -7.13285 30.172 -6.60243C29.6533 -1.39614 28.7618 4.21868 24.2202 7.34254C21.8858 8.9482 19.7472 9.12783 17.6885 8.60307C15.8479 8.13387 14.07 7.09954 12.2862 6.06173L12.2861 6.06168C12.098 5.95222 11.9098 5.84272 11.7214 5.73384C9.73126 4.58345 7.71303 3.49388 5.50629 3.14032C3.31432 2.78913 0.91651 3.16203 -1.83514 4.98458C-4.53885 6.77536 -5.28265 9.39666 -5.25089 12.2833C-5.23498 13.7299 -5.02375 15.2346 -4.76859 16.7239C-4.68508 17.2113 -4.59657 17.6984 -4.50886 18.1812L-4.5087 18.1821L-4.50864 18.1825C-4.32988 19.1664 -4.15444 20.132 -4.03134 21.0442C-3.8476 22.4058 -3.77462 23.6838 -3.98501 24.7789C-4.19714 25.883 -4.70012 26.8126 -5.66952 27.4483C-6.62917 28.0777 -8.01426 28.398 -9.94948 28.3614Z" fill="#F1F2F8"/>
</g>
</svg>
